<svg width="239" height="239" viewBox="0 0 239 239" fill="none" xmlns="http://www.w3.org/2000/svg">
<path d="M109.732 201.198C91.6501 201.198 77.4432 195.784 67.111 184.956C57.037 173.87 52 158.53 52 138.936C52 119.599 56.1329 102.325 64.3987 87.1142C72.6646 71.903 84.0301 59.9145 98.4953 51.1487C112.96 42.3829 129.363 38 147.703 38C160.102 38 169.917 40.0625 177.15 44.1876C184.382 48.3127 187.999 53.9847 187.999 61.2036C187.999 67.649 184.899 73.9655 178.7 80.1531C176.375 82.4735 173.275 84.6649 169.401 86.7275C165.784 88.5322 162.943 89.4346 160.876 89.4346C158.552 89.4346 156.614 88.5322 155.065 86.7275C152.481 83.8915 149.123 81.1844 144.991 78.6062C140.858 76.0281 135.046 74.739 127.555 74.739C114.898 74.739 104.565 79.1219 96.558 87.8877C88.5505 96.3956 84.5467 107.611 84.5467 121.533C84.5467 134.166 88.163 144.35 95.3956 152.084C102.628 159.819 112.186 163.686 124.068 163.686C130.267 163.686 136.983 162.655 144.216 160.592C151.707 158.272 158.293 155.049 163.976 150.924C166.818 148.346 169.788 147.057 172.888 147.057C178.054 147.057 180.637 150.279 180.637 156.725C180.637 165.233 176.375 173.354 167.851 181.089C161.393 187.018 152.74 191.917 141.891 195.784C131.3 199.394 120.581 201.198 109.732 201.198Z" fill="#24786D"/>
<path d="M110.026 197.313C92.461 197.313 78.66 192.027 68.6229 181.457C58.8368 170.635 53.9437 155.66 53.9437 136.532C53.9437 117.656 57.9586 100.794 65.9882 85.9448C74.0179 71.0958 85.0587 59.3927 99.1106 50.8356C113.162 42.2785 129.096 38 146.912 38C158.957 38 168.492 40.0134 175.518 44.0403C182.544 48.0672 186.057 53.6041 186.057 60.6511C186.057 66.9431 183.046 73.1092 177.023 79.1495C174.765 81.4146 171.754 83.5539 167.99 85.5673C164.477 87.3291 161.717 88.2099 159.709 88.2099C157.451 88.2099 155.569 87.3291 154.064 85.5673C151.554 82.7988 148.292 80.1562 144.277 77.6394C140.263 75.1226 134.617 73.8642 127.34 73.8642C115.044 73.8642 105.007 78.1428 97.2286 86.6999C89.4499 95.0053 85.5605 105.953 85.5605 119.544C85.5605 131.876 89.0735 141.818 96.0994 149.368C103.125 156.918 112.41 160.693 123.952 160.693C129.975 160.693 136.499 159.687 143.525 157.673C150.802 155.408 157.2 152.262 162.721 148.235C165.481 145.719 168.366 144.46 171.378 144.46C176.396 144.46 178.905 147.606 178.905 153.898C178.905 162.204 174.765 170.131 166.484 177.682C160.211 183.47 151.805 188.252 141.266 192.027C130.978 195.551 120.565 197.313 110.026 197.313Z" fill="white"/>
</svg>
